<mxfile host="app.diagrams.net" modified="2023-07-17T08:29:13.947Z" agent="Mozilla/5.0 (Macintosh; Intel Mac OS X 10_15_7) AppleWebKit/537.36 (KHTML, like Gecko) Chrome/114.0.0.0 Safari/537.36" version="21.6.2" etag="Pgj5nGgV_gnV1GGrYLAe" type="github">
  <diagram name="Page-1" id="7bRf0xYLzoMVCVGMEvpJ">
    <mxGraphModel>
      <root>
        <mxCell id="0" />
        <mxCell id="1" parent="0" />
      </root>
    </mxGraphModel>
  </diagram>
</mxfile>
